<?xml version="1.0" encoding="UTF-8" standalone="no"?>
<svg
   xmlns:dc="http://purl.org/dc/elements/1.1/"
   xmlns:cc="http://creativecommons.org/ns#"
   xmlns:rdf="http://www.w3.org/1999/02/22-rdf-syntax-ns#"
   xmlns:svg="http://www.w3.org/2000/svg"
   xmlns="http://www.w3.org/2000/svg"
   xmlns:sodipodi="http://sodipodi.sourceforge.net/DTD/sodipodi-0.dtd"
   xmlns:inkscape="http://www.inkscape.org/namespaces/inkscape"
   width="512"
   height="512"
   viewBox="0 0 512 512"
   version="1.1"
   id="svg3751"
   sodipodi:docname="application-background.svg"
   inkscape:version="0.92.4 (5da689c313, 2019-01-14)">
  <metadata
     id="metadata3757">
    <rdf:RDF>
      <cc:Work
         rdf:about="">
        <dc:format>image/svg+xml</dc:format>
        <dc:type
           rdf:resource="http://purl.org/dc/dcmitype/StillImage" />
        <dc:title>ionicons-v5-i</dc:title>
      </cc:Work>
    </rdf:RDF>
  </metadata>
  <defs
     id="defs3755">
    <clipPath
       clipPathUnits="userSpaceOnUse"
       id="clipPath4580">
      <g
         transform="translate(5.259343e-6,-1.3864922e-6)"
         inkscape:label="Clip"
         id="use4582"
         style="fill:#143828;fill-opacity:1">
        <path
           style="fill:#143828;fill-opacity:1"
           id="path856"
           d="m 261.56,101.28 a 8,8 0 0 0 -11.06,0 L 66.4,277.15 a 8,8 0 0 0 -2.47,5.79 L 63.9,448 a 32,32 0 0 0 32,32 H 192 a 16,16 0 0 0 16,-16 V 328 a 8,8 0 0 1 8,-8 h 80 a 8,8 0 0 1 8,8 v 136 a 16,16 0 0 0 16,16 h 96.06 a 32,32 0 0 0 32,-32 V 282.94 a 8,8 0 0 0 -2.47,-5.79 z"
           inkscape:connector-curvature="0" />
        <path
           style="fill:#143828;fill-opacity:1"
           id="path858"
           d="m 490.91,244.15 -74.8,-71.56 V 64 a 16,16 0 0 0 -16,-16 h -48 a 16,16 0 0 0 -16,16 V 96 L 278.19,40.62 C 272.77,35.14 264.71,32 256,32 v 0 c -8.68,0 -16.72,3.14 -22.14,8.63 l -212.7,203.5 c -6.22,6 -7,15.87 -1.34,22.37 A 16,16 0 0 0 43,267.56 L 250.5,69.28 a 8,8 0 0 1 11.06,0 l 207.52,198.28 a 16,16 0 0 0 22.59,-0.44 c 6.14,-6.36 5.63,-16.86 -0.76,-22.97 z"
           inkscape:connector-curvature="0" />
      </g>
    </clipPath>
  </defs>
  <sodipodi:namedview
     pagecolor="#ffffff"
     bordercolor="#666666"
     borderopacity="1"
     objecttolerance="10"
     gridtolerance="10"
     guidetolerance="10"
     inkscape:pageopacity="0"
     inkscape:pageshadow="2"
     inkscape:window-width="1920"
     inkscape:window-height="1017"
     id="namedview3753"
     showgrid="false"
     inkscape:snap-global="true"
     inkscape:zoom="0.921875"
     inkscape:cx="-182.31642"
     inkscape:cy="233.9741"
     inkscape:window-x="-8"
     inkscape:window-y="-8"
     inkscape:window-maximized="1"
     inkscape:current-layer="svg3751" />
  <title
     id="title3745">ionicons-v5-i</title>
  <rect
     id="rect3759"
     width="514.16949"
     height="512"
     x="-2.1694915"
     y="0"
     style="fill-opacity:1;fill:#9dc648" />
</svg>
