<svg id="Layer_1" enable-background="new 0 0 512 512" height="512" viewBox="0 0 512 512" width="512" xmlns="http://www.w3.org/2000/svg"><g><g><path d="m97.686 390c-27.611 0-52.951-17.804-71.353-50.131-16.886-29.664-26.186-68.683-26.186-109.869s9.3-80.205 26.186-109.869c18.401-32.327 43.742-50.131 71.353-50.131s52.951 17.804 71.353 50.131c16.886 29.665 26.186 68.684 26.186 109.869s-9.3 80.205-26.186 109.869c-18.402 32.327-43.743 50.131-71.353 50.131z" fill="#00cb75"/></g><g><path d="m414.461 390c-27.611 0-52.951-17.804-71.353-50.131-16.886-29.665-26.186-68.684-26.186-109.869s9.3-80.205 26.186-109.869c18.402-32.327 43.743-50.131 71.353-50.131s52.951 17.804 71.353 50.131c16.886 29.664 26.186 68.683 26.186 109.869s-9.3 80.205-26.186 109.869c-18.401 32.327-43.742 50.131-71.353 50.131z" fill="#00ab5e"/></g><g><path d="m256 390c-32.918 0-63.257-21.451-85.429-60.402-20.656-36.288-32.032-84.089-32.032-134.598s11.376-98.31 32.032-134.598c22.172-38.951 52.511-60.402 85.429-60.402s63.258 21.451 85.43 60.402c20.655 36.288 32.031 84.089 32.031 134.598s-11.376 98.31-32.032 134.598c-22.171 38.951-52.511 60.402-85.429 60.402z" fill="#bee75e"/></g><path d="m341.43 60.402c-22.172-38.951-52.512-60.402-85.43-60.402v390c32.918 0 63.258-21.451 85.43-60.402 20.656-36.288 32.032-84.089 32.032-134.598s-11.377-98.31-32.032-134.598z" fill="#00cb75"/><g><path d="m97.685 505c-8.284 0-15-6.716-15-15v-214c0-8.284 6.716-15 15-15s15 6.716 15 15v214c0 8.285-6.716 15-15 15z" fill="#6b5c59"/></g><g><path d="m414.461 505c-8.284 0-15-6.716-15-15v-214c0-8.284 6.716-15 15-15s15 6.716 15 15v214c0 8.285-6.715 15-15 15z" fill="#4f4540"/></g><path d="m315.852 203.64c-5.857-5.858-15.355-5.858-21.213 0l-23.639 23.639v-75.279c0-8.284-6.716-15-15-15s-15 6.716-15 15v16.85l-8.394-8.394c-5.857-5.858-15.355-5.858-21.213 0s-5.858 15.355 0 21.213l29.607 29.607v278.724c0 8.284 6.716 15 15 15s15-6.716 15-15v-220.295l44.852-44.852c5.858-5.858 5.858-15.355 0-21.213z" fill="#6b5c59"/><path d="m315.852 203.64c-5.857-5.858-15.355-5.858-21.213 0l-23.639 23.639v-75.279c0-8.284-6.716-15-15-15v368c8.284 0 15-6.716 15-15v-220.295l44.852-44.852c5.858-5.858 5.858-15.355 0-21.213z" fill="#4f4540"/><g><path d="m497 512h-482c-8.284 0-15-6.716-15-15s6.716-15 15-15h482c8.284 0 15 6.716 15 15s-6.716 15-15 15z" fill="#bee75e"/></g><path d="m497 482h-241v30h241c8.284 0 15-6.716 15-15s-6.716-15-15-15z" fill="#00cb75"/></g></svg>